<?xml version="1.0" encoding="UTF-8" standalone="no"?>
<svg
   xmlns:dc="http://purl.org/dc/elements/1.1/"
   xmlns:cc="http://creativecommons.org/ns#"
   xmlns:rdf="http://www.w3.org/1999/02/22-rdf-syntax-ns#"
   xmlns:svg="http://www.w3.org/2000/svg"
   xmlns="http://www.w3.org/2000/svg"
   xmlns:sodipodi="http://sodipodi.sourceforge.net/DTD/sodipodi-0.dtd"
   xmlns:inkscape="http://www.inkscape.org/namespaces/inkscape"
   version="1.0"
   width="128"
   height="128"
   id="svg3040"
   inkscape:version="0.48.5 r10040"
   sodipodi:docname="Gmodlogo.svg">
  <metadata
     id="metadata3055">
    <rdf:RDF>
      <cc:Work
         rdf:about="">
        <dc:format>image/svg+xml</dc:format>
        <dc:type
           rdf:resource="http://purl.org/dc/dcmitype/StillImage" />
        <dc:title></dc:title>
      </cc:Work>
    </rdf:RDF>
  </metadata>
  <sodipodi:namedview
     pagecolor="#ffffff"
     bordercolor="#666666"
     borderopacity="1"
     objecttolerance="10"
     gridtolerance="10"
     guidetolerance="10"
     inkscape:pageopacity="0"
     inkscape:pageshadow="2"
     inkscape:window-width="1920"
     inkscape:window-height="1025"
     id="namedview3053"
     showgrid="false"
     showguides="true"
     inkscape:guide-bbox="true"
     inkscape:zoom="7.375"
     inkscape:cx="61.581473"
     inkscape:cy="62.741108"
     inkscape:window-x="-3"
     inkscape:window-y="32"
     inkscape:window-maximized="1"
     inkscape:current-layer="svg3040">
    <sodipodi:guide
       orientation="0,1"
       position="116.0678,106.71186"
       id="guide3101" />
    <sodipodi:guide
       orientation="1,0"
       position="20.338983,106.71186"
       id="guide3107" />
    <sodipodi:guide
       orientation="1,0"
       position="108.0678,98.169492"
       id="guide3109" />
    <sodipodi:guide
       orientation="1,0"
       position="64,51.79661"
       id="guide3111" />
    <sodipodi:guide
       orientation="0,1"
       position="68.474576,64"
       id="guide3113" />
    <sodipodi:guide
       orientation="0,1"
       position="58.033898,20.338983"
       id="guide3115" />
  </sodipodi:namedview>
  <defs
     id="defs3042">
    <filter
       id="b">
      <feGaussianBlur
         stdDeviation="4"
         id="feGaussianBlur3045" />
    </filter>
  </defs>
  <rect
     width="104"
     height="104"
     ry="8.5"
     x="12"
     y="12"
     style="fill:#000;filter:url(#b)"
     id="rect3047" />
  <rect
     width="108"
     height="108"
     ry="8.5"
     x="10"
     y="10"
     style="fill:#1194f0"
     id="rect3049" />
  <path
     style="fill:#ff0000"
     d="m 118,64 0,45.5 c 0,4.709 -3.791,8.5 -8.5,8.5 L 64,118 z"
     id="rect3049-0"
     inkscape:connector-curvature="0"
     sodipodi:nodetypes="csscc" />
  <path
     style="fill:#ffffff"
     d="m 36.478414,21.37 c -5.931697,0.06518 -11.733027,3.780642 -14.118743,9.256055 -2.222757,4.497661 -2.09239,10.168624 -1.583959,14.535917 0.508432,4.367294 1.538331,7.887202 4.465069,10.559725 3.024514,3.193991 7.522174,4.628028 11.824285,4.758395 3.585091,-0.325918 7.952385,-1.30367 9.516789,-4.953945 -0.195551,2.80289 0.651834,5.80133 -0.456285,8.473853 -2.607339,4.758394 -9.647156,6.062064 -13.884082,2.933257 -1.890322,-1.30367 -2.346606,-3.650275 -2.737707,-5.670963 l -9.164798,0 c -0.417174,6.518348 4.06745,12.599967 10.077367,14.751023 6.844266,2.476972 15.122569,1.69477 20.923899,-2.868074 3.519908,-2.757261 5.60578,-7.189738 5.540596,-11.622215 l 0,-38.979725 c -3.324357,-0.06518 -6.648715,0 -9.973073,0 0,1.564403 0,3.193991 0.06518,4.758394 -1.629587,-3.519908 -5.475412,-5.80133 -9.321238,-5.931697 -0.391101,0 -0.782202,0 -1.173303,0 z m 2.476973,8.734587 c 2.868073,0 5.736146,1.629587 6.844266,4.367294 1.564403,4.041376 1.825137,8.669403 0.325917,12.775963 -1.30367,2.737706 -3.911009,5.345046 -7.170183,5.019128 -4.171743,0.325918 -7.170184,-3.715458 -7.887202,-7.430917 -0.586652,-3.454725 -0.521468,-7.235367 0.977752,-10.494541 1.238486,-2.80289 3.976193,-4.171743 6.90945,-4.236927 z"
     id="path3051"
     inkscape:connector-curvature="0" />
  <g
     transform="matrix(0.70710678,-0.70710678,0.70710678,0.70710678,0,0)"
     style="font-size:48.10660933999999855px;font-style:normal;font-variant:normal;font-weight:normal;font-stretch:normal;line-height:125%;letter-spacing:0px;word-spacing:0px;fill:#ffffff;fill-opacity:1;stroke:none;font-family:Coolvetica;-inkscape-font-specification:Coolvetica"
     id="text3159">
    <path
       d="m -2.6699887,121.74696 0,-14.33577 c -2.9e-5,-1.44318 -0.336775,-2.61377 -1.0102388,-3.51178 -0.6735199,-0.89797 -1.571509,-1.34696 -2.6939701,-1.34698 -1.1545828,2e-5 -2.116714,0.48108 -2.8863966,1.44319 -0.7376564,0.96215 -1.1064738,2.16482 -1.1064518,3.608 l 0,14.14334 -6.253859,0 0,-14.23955 c -1.5e-5,-0.96212 -0.06416,-1.74786 -0.192427,-2.35723 -0.128299,-0.60933 -0.352796,-1.0904 -0.673492,-1.4432 -0.288654,-0.35276 -0.673506,-0.59329 -1.154559,-0.72159 -0.481079,-0.16034 -1.058357,-0.24052 -1.731838,-0.24054 -2.533623,2e-5 -3.80043,1.53943 -3.800422,4.61824 l 0,14.38387 -6.253859,0 0,-23.668448 5.869006,0 0,3.463678 c 0.801769,-1.571463 1.7639,-2.645843 2.886397,-3.223145 1.122476,-0.577256 2.46946,-0.865895 4.040955,-0.865919 0.801762,2.4e-5 1.507325,0.06417 2.116691,0.192426 0.641404,0.128308 1.202647,0.352806 1.683731,0.673493 0.513119,0.288663 0.994184,0.673515 1.443198,1.154558 0.448975,0.481088 0.89797,1.058367 1.346985,1.731837 0.6414,-1.314891 1.491283,-2.260987 2.5496505,-2.838289 1.0583212,-0.609326 2.3411628,-0.914001 3.8485288,-0.914025 1.1866015,2.4e-5 2.2770169,0.208486 3.2712494,0.625386 0.99417199,0.384876 1.84405457,0.946119 2.5496503,1.683731 0.7055301,0.705587 1.2507378,1.539427 1.6356247,2.501547 0.4168891,0.96215 0.6253508,1.98842 0.625386,3.07882 l 0,16.40435 -6.1095394,0"
       style="fill:#ffffff"
       id="path3220" />
    <path
       d="m 6.0786492,121.74696 0,-23.668448 6.2538588,0 0,23.668448 -6.2538588,0 m 0,-26.506738 0,-5.8209 6.2538588,0 0,5.8209 -6.2538588,0"
       style="fill:#ffffff"
       id="path3222" />
    <path
       d="m 36.265546,113.18399 c -0.160377,1.37906 -0.561265,2.62983 -1.202665,3.75231 -0.609371,1.12249 -1.395112,2.08463 -2.357224,2.8864 -0.96215,0.80178 -2.068601,1.42716 -3.319356,1.87616 -1.218715,0.44899 -2.549663,0.67349 -3.992848,0.67349 -1.603564,0 -3.078832,-0.25657 -4.425808,-0.76971 -1.31492,-0.5452 -2.453442,-1.34698 -3.41557,-2.40533 -0.962135,-1.09041 -1.715804,-2.42136 -2.26101,-3.99285 -0.513139,-1.60354 -0.769707,-3.46366 -0.769706,-5.58036 -1e-6,-2.11668 0.256567,-3.94473 0.769706,-5.48416 0.545206,-1.53939 1.298875,-2.79016 2.26101,-3.75231 0.962128,-0.994182 2.116685,-1.731816 3.463676,-2.212905 1.379048,-0.481042 2.902422,-0.721575 4.570128,-0.721599 1.539398,2.4e-5 2.934488,0.208486 4.185275,0.625386 1.282826,0.416947 2.389277,1.026297 3.319356,1.828051 0.962112,0.801797 1.715781,1.763927 2.261011,2.886397 0.545186,1.1225 0.865896,2.37328 0.962132,3.75231 l -6.301966,0 c -0.160371,-1.21868 -0.657473,-2.16478 -1.491305,-2.83829 -0.801791,-0.70554 -1.795993,-1.05832 -2.98261,-1.05834 -0.673503,2e-5 -1.298889,0.11227 -1.876157,0.33675 -0.577289,0.22451 -1.090426,0.60936 -1.539412,1.15455 -0.416932,0.51316 -0.753678,1.21872 -1.010239,2.1167 -0.256575,0.86593 -0.38486,1.94031 -0.384853,3.22314 -7e-6,2.59776 0.465024,4.52203 1.395092,5.77279 0.930052,1.25078 2.004432,1.87616 3.223143,1.87616 1.218688,0 2.260997,-0.33674 3.12693,-1.01024 0.865903,-0.67349 1.363004,-1.65165 1.491304,-2.9345 l 6.301966,0"
       style="fill:#ffffff"
       id="path3224" />
  </g>
</svg>
